<svg width="42" height="33" viewBox="0 0 42 33" fill="none" xmlns="http://www.w3.org/2000/svg">
<path d="M7.63547 32.836V30.6519C7.63547 29.8144 7.13114 29.2685 6.2667 29.2685C5.83456 29.2685 5.36632 29.4141 5.04213 29.8874C4.79013 29.4869 4.43002 29.2685 3.88976 29.2685C3.52948 29.2685 3.16953 29.3776 2.88127 29.7781V29.3413H2.12494V32.836H2.88127V30.9066C2.88127 30.2879 3.20545 29.9965 3.70978 29.9965C4.21378 29.9965 4.46611 30.3242 4.46611 30.9066V32.836H5.22244V30.9066C5.22244 30.2879 5.58239 29.9965 6.05063 29.9965C6.55496 29.9965 6.80695 30.3242 6.80695 30.9066V32.836H7.63547ZM18.8362 29.3413H17.6118V28.2857H16.8555V29.3413H16.1712V30.0328H16.8553V31.6347C16.8553 32.4357 17.1795 32.9088 18.0439 32.9088C18.3681 32.9088 18.7281 32.7997 18.9804 32.6541L18.7642 31.9987C18.5481 32.1443 18.2961 32.1808 18.1159 32.1808C17.7558 32.1808 17.6118 31.9624 17.6118 31.5983V30.0328H18.8362V29.3413ZM25.2471 29.2684C24.8149 29.2684 24.5269 29.4869 24.3467 29.7781V29.3413H23.5904V32.836H24.3467V30.8703C24.3467 30.2879 24.5987 29.9602 25.0669 29.9602C25.211 29.9602 25.3911 29.9967 25.5352 30.033L25.7513 29.305C25.6072 29.2685 25.3911 29.2685 25.2471 29.2685V29.2684ZM15.5589 29.6325C15.1986 29.3776 14.6944 29.2685 14.1542 29.2685C13.2899 29.2685 12.7137 29.7053 12.7137 30.397C12.7137 30.9795 13.1458 31.3071 13.9022 31.4163L14.2623 31.4528C14.6585 31.5255 14.8746 31.6347 14.8746 31.8168C14.8746 32.0715 14.5865 32.2536 14.0821 32.2536C13.578 32.2536 13.1818 32.0715 12.9296 31.8896L12.5695 32.472C12.9657 32.7632 13.506 32.9088 14.046 32.9088C15.0545 32.9088 15.6309 32.4357 15.6309 31.7803C15.6309 31.1615 15.1627 30.8338 14.4423 30.7247L14.0821 30.6882C13.758 30.6517 13.506 30.5791 13.506 30.3607C13.506 30.1058 13.758 29.9602 14.1542 29.9602C14.5865 29.9602 15.0186 30.1421 15.2347 30.2514L15.5589 29.6325ZM35.6557 29.2685C35.2234 29.2685 34.9353 29.4869 34.7552 29.7781V29.3413H33.9988V32.836H34.7552V30.8703C34.7552 30.2879 35.0073 29.9602 35.4754 29.9602C35.6196 29.9602 35.7998 29.9967 35.9438 30.033L36.1599 29.305C36.0158 29.2685 35.7998 29.2685 35.6557 29.2685ZM26.0034 31.0887C26.0034 32.1443 26.7236 32.9088 27.8403 32.9088C28.3444 32.9088 28.7045 32.7997 29.0647 32.5085L28.7045 31.8896C28.4164 32.108 28.1284 32.2171 27.8042 32.2171C27.1919 32.2171 26.7597 31.7803 26.7597 31.0887C26.7597 30.4335 27.1919 29.9965 27.8042 29.9602C28.1284 29.9602 28.4164 30.0693 28.7045 30.2879L29.0647 29.669C28.7045 29.3776 28.3444 29.2685 27.8403 29.2685C26.7236 29.2685 26.0034 30.033 26.0034 31.0887ZM32.9905 31.0887V29.3413H32.2342V29.7781C31.982 29.4506 31.6219 29.2685 31.1537 29.2685C30.1813 29.2685 29.4249 30.033 29.4249 31.0887C29.4249 32.1443 30.1813 32.9088 31.1537 32.9088C31.6578 32.9088 32.0181 32.7269 32.2342 32.3992V32.836H32.9905V31.0887ZM30.2172 31.0887C30.2172 30.4698 30.6134 29.9602 31.2616 29.9602C31.8739 29.9602 32.3062 30.4335 32.3062 31.0887C32.3062 31.7075 31.8739 32.2171 31.2616 32.2171C30.6134 32.1807 30.2172 31.7075 30.2172 31.0887ZM21.1774 29.2685C20.1689 29.2685 19.4485 29.9965 19.4485 31.0887C19.4485 32.1808 20.1687 32.9088 21.2133 32.9088C21.7174 32.9088 22.2218 32.7632 22.618 32.4357L22.2577 31.8896C21.9696 32.108 21.6095 32.2536 21.2494 32.2536C20.7811 32.2536 20.3129 32.0352 20.2048 31.4162H22.762V31.1251C22.7981 29.9965 22.1499 29.2685 21.1774 29.2685ZM21.1774 29.9237C21.6454 29.9237 21.9698 30.2151 22.0416 30.7612H20.2409C20.3129 30.2879 20.6371 29.9237 21.1774 29.9237ZM39.9415 31.0887V27.958H39.1852V29.7781C38.933 29.4506 38.5729 29.2685 38.1047 29.2685C37.1323 29.2685 36.3759 30.033 36.3759 31.0887C36.3759 32.1443 37.1323 32.9088 38.1047 32.9088C38.609 32.9088 38.9691 32.7269 39.1852 32.3992V32.836H39.9415V31.0887ZM37.1684 31.0887C37.1684 30.4698 37.5644 29.9602 38.2128 29.9602C38.8251 29.9602 39.2572 30.4335 39.2572 31.0887C39.2572 31.7075 38.8251 32.2171 38.2128 32.2171C37.5644 32.1807 37.1684 31.7075 37.1684 31.0887ZM11.8852 31.0887V29.3413H11.1289V29.7781C10.8767 29.4506 10.5166 29.2685 10.0483 29.2685C9.07594 29.2685 8.31961 30.033 8.31961 31.0887C8.31961 32.1443 9.07594 32.9088 10.0483 32.9088C10.5527 32.9088 10.9128 32.7269 11.1289 32.3992V32.836H11.8852V31.0887ZM9.07594 31.0887C9.07594 30.4698 9.47215 29.9602 10.1204 29.9602C10.7326 29.9602 11.1649 30.4335 11.1649 31.0887C11.1649 31.7075 10.7326 32.2171 10.1204 32.2171C9.47215 32.1807 9.07594 31.7075 9.07594 31.0887Z" fill="black"/>
<path d="M16.0271 13.1053C16.0271 8.91895 17.9719 5.20571 20.9611 2.80301C18.7643 1.05567 15.9912 0 12.9659 0C5.79846 0 0 5.8609 0 13.1053C0 20.3496 5.79846 26.2106 12.9657 26.2106C15.991 26.2106 18.7642 25.155 20.9611 23.4074C17.9719 21.0412 16.0271 17.2917 16.0271 13.1053Z" fill="#EB001B"/>
<path d="M41.9583 13.1053C41.9583 20.3496 36.1599 26.2106 28.9926 26.2106C25.9673 26.2106 23.1942 25.155 20.9972 23.4074C24.0225 21.0049 25.9314 17.2917 25.9314 13.1053C25.9314 8.91895 23.9864 5.20571 20.9972 2.80301C23.194 1.05567 25.9673 0 28.9926 0C36.1599 0 41.9583 5.89738 41.9583 13.1053Z" fill="#F79E1B"/>
</svg>
