<svg width="32" height="37" viewBox="0 0 32 37" fill="none" xmlns="http://www.w3.org/2000/svg">
<path d="M12.7996 8.43404C12.9969 8.34196 13.2127 8.29424 13.4312 8.29437H22.596C23.6812 8.29437 24.6935 8.36359 25.6185 8.50951C25.8773 8.54996 26.1348 8.59826 26.3906 8.65433C26.7532 8.73274 27.1115 8.8287 27.4644 8.94187C27.9191 9.09073 28.3426 9.26409 28.7319 9.4671C29.1906 6.59825 28.7286 4.6473 27.146 2.88C25.4032 0.934191 22.2557 0.0999756 18.2279 0.0999756H6.53687C5.71375 0.0999756 5.0135 0.68732 4.8845 1.48368L0.0169959 31.7401C-0.0797541 32.3378 0.391621 32.8773 1.00762 32.8773H8.22562L11.986 9.50484C12.023 9.2751 12.1163 9.05762 12.2581 8.87109C12.3998 8.68456 12.5856 8.53458 12.7996 8.43404Z" fill="#27346A"/>
<path d="M28.6121 10.1381C27.0711 17.8959 21.7959 20.5791 15.0585 20.5791H11.628C10.805 20.5791 10.1099 21.1666 9.982 21.9631L7.72712 35.9734C7.64287 36.4956 8.05487 36.9688 8.59387 36.9688H14.6776C15.0261 36.9687 15.3631 36.8467 15.6281 36.6248C15.893 36.4029 16.0685 36.0957 16.123 35.7583L16.1822 35.4545L17.3289 28.3318L17.4027 27.9382C17.4572 27.6008 17.6327 27.2936 17.8976 27.0717C18.1625 26.8498 18.4995 26.7278 18.848 26.7277H19.7585C25.6519 26.7277 30.2665 24.381 31.615 17.5941C32.1779 14.7579 31.8866 12.3899 30.3976 10.7266C29.946 10.2228 29.3851 9.80672 28.7317 9.4671C28.6964 9.68641 28.658 9.90865 28.6121 10.1381Z" fill="#2790C3"/>
<path d="M27.119 8.83688C26.8787 8.76811 26.6362 8.70723 26.3918 8.65433C26.1358 8.59918 25.8784 8.55121 25.6196 8.5105C24.6936 8.3636 23.6821 8.29425 22.5959 8.29425H13.4323C13.2136 8.29377 12.9976 8.3419 12.8006 8.43503C12.5864 8.53525 12.4004 8.68515 12.2586 8.87173C12.1168 9.05831 12.0235 9.27596 11.9869 9.50582L10.0391 21.6102L9.98288 21.9631C10.111 21.1666 10.806 20.5791 11.6291 20.5791H15.0596C21.7969 20.5791 27.0721 17.897 28.6131 10.1381C28.659 9.90866 28.6975 9.68629 28.7329 9.46711C28.3426 9.2652 27.9203 9.09073 27.4654 8.94286C27.3506 8.90556 27.2352 8.87023 27.1191 8.83688" fill="#1F264F"/>
</svg>
