<svg width="44" height="10" viewBox="0 0 44 10" fill="none" xmlns="http://www.w3.org/2000/svg">
<path d="M7.22562 0.818634C7.53362 1.31226 7.66425 1.81413 7.66425 2.45076C7.66425 4.48576 5.92212 7.12713 4.51275 8.99713H1.30487L0.00137329 1.26276L2.82287 0.983635L3.5035 6.48363C4.14837 5.45926 4.93487 3.82576 4.93487 2.70926C4.93487 2.10838 4.82075 1.68488 4.65575 1.33426L7.22562 0.818634ZM10.8914 4.21213C11.4015 4.21213 12.7242 3.97563 12.7242 3.23863C12.7242 2.87426 12.4671 2.68726 12.1742 2.68726C11.6449 2.68726 10.9629 3.33213 10.8914 4.21213ZM10.835 5.68064C10.835 6.59776 11.33 6.96213 12.0106 6.96213C12.7407 6.96213 13.42 6.77651 14.3371 6.31863L13.9865 8.63001C13.3485 8.93801 12.353 9.14701 11.3864 9.14701C8.94437 9.14701 8.063 7.67851 8.063 5.80851C8.063 3.40363 9.49712 0.85301 12.4314 0.85301C14.0429 0.85301 14.96 1.75501 14.96 3.02413C14.96 5.03713 12.3379 5.68064 10.835 5.69576V5.68064ZM23.1041 2.61439C23.1041 2.92926 23.045 3.35276 23.0106 3.64701L22.165 8.99713H19.415L20.1891 4.08426L20.2386 3.53288C20.2386 3.16851 20.0241 3.09701 19.7656 3.09701C19.393 3.09701 19.0286 3.26201 18.8141 3.36788L17.9327 8.99851H15.1827L16.4299 0.985009H18.8155L18.8499 1.62851C19.4164 1.26414 20.1685 0.840635 21.2135 0.840635C22.6036 0.840635 23.1055 1.57213 23.1055 2.63913L23.1041 2.61439ZM31.2606 1.72063C32.0471 1.16926 32.7786 0.83926 33.8236 0.83926C35.2206 0.83926 35.7142 1.57076 35.7142 2.63776C35.7094 2.97649 35.6786 3.31436 35.6221 3.64838L34.7765 8.99851H32.0265L32.813 3.99213L32.857 3.59064C32.857 3.19051 32.6356 3.09701 32.3551 3.09701C32.0265 3.09701 31.6827 3.24001 31.438 3.36788L30.5649 8.99851H27.8149L28.6027 3.97701L28.6371 3.59064C28.6371 3.19051 28.4158 3.09701 28.1435 3.09701C27.7695 3.09701 27.4271 3.26201 27.1824 3.36788L26.323 8.98338H23.5606L24.8201 0.985009H27.1686L27.2621 1.65051C27.8135 1.24213 28.5436 0.840635 29.5322 0.840635C30.4136 0.840635 30.9664 1.20776 31.2592 1.72201L31.2606 1.72063ZM41.1785 4.04713C41.1785 3.40363 41.0135 2.94576 40.5336 2.94576C39.4391 2.94576 39.2177 4.87213 39.2177 5.84563C39.2177 6.59776 39.4171 7.05564 39.9121 7.05564C40.9351 7.05564 41.1785 5.03713 41.1785 4.04713ZM36.4086 5.73013C36.4086 3.20426 37.7712 0.83926 40.8293 0.83926C43.1558 0.83926 44.0014 2.21426 44.0014 4.10626C44.0014 6.59776 42.6828 9.18276 39.5257 9.18276C37.1979 9.18276 36.4086 7.65788 36.4086 5.73013Z" fill="black"/>
</svg>
