<svg width="48" height="20" viewBox="0 0 48 20" fill="none" xmlns="http://www.w3.org/2000/svg">
<path d="M24.8244 6.07576C24.7971 8.72328 26.7488 10.2006 28.2189 11.0791C29.7294 11.9803 30.2368 12.5582 30.2308 13.3642C30.2196 14.5977 29.0259 15.1421 27.909 15.1632C25.9603 15.2002 24.8272 14.5181 23.9265 14.0022L23.2245 18.0298C24.1283 18.5404 25.8017 18.9857 27.537 19.0053C31.6104 19.0053 34.2754 16.5398 34.2898 12.7173C34.3057 7.86598 28.8171 7.59746 28.8546 5.42905C28.8675 4.77154 29.3792 4.06989 30.5004 3.89149C31.0554 3.80137 32.5875 3.7324 34.3245 4.71315L35.0062 0.81636C34.0721 0.399324 32.8716 -1.14441e-05 31.3768 -1.14441e-05C27.5428 -1.14441e-05 24.8462 2.49899 24.8244 6.07576ZM41.5571 0.335642C40.8133 0.335642 40.1865 0.867626 39.9067 1.684L34.0881 18.7191H38.1585L38.9685 15.9743H43.9425L44.4124 18.7191H48L44.8693 0.335642H41.5571ZM42.1266 5.30169L43.3013 12.2049H40.0841L42.1266 5.30169ZM19.8892 0.335871L16.6807 18.7188H20.5596L23.7666 0.335411H19.8892M14.1512 0.335411L10.1139 12.8481L8.48081 2.20909C8.28919 1.02143 7.53244 0.335642 6.69206 0.335642H0.0924375L0 0.869467C1.35487 1.22995 2.89425 1.81136 3.82687 2.43347C4.39762 2.81349 4.56038 3.1457 4.74788 4.04874L7.84106 18.7191H11.94L18.2243 0.335642L14.1512 0.335411Z" fill="url(#paint0_linear_6_15)"/>
<defs>
<linearGradient id="paint0_linear_6_15" x1="2206.75" y1="57.1299" x2="2274.18" y2="-1893.96" gradientUnits="userSpaceOnUse">
<stop stop-color="#222357"/>
<stop offset="1" stop-color="#254AA5"/>
</linearGradient>
</defs>
</svg>
